<svg width="48.891px" height="48.891px" viewBox="-3.99 0 48.891 48.891" xmlns="http://www.w3.org/2000/svg">
  <g id="man_in_uniform" data-name="man in uniform" transform="translate(-421.61 -417.619)">
    <path id="Path_151" data-name="Path 151" d="M446.06,450.047h-7.99a15.958,15.958,0,0,0-11.285,4.675c-.237.236-.465.477-.684.726l-1.854,2.581a15.943,15.943,0,0,0-2.137,7.977v0h39.909v0a15.943,15.943,0,0,0-2.137-7.977l-1.854-2.581c-.219-.249-.447-.49-.684-.726a15.955,15.955,0,0,0-11.284-4.675Z" fill="#e23a44" fill-rule="evenodd"/>
    <path id="Path_152" data-name="Path 152" d="M446.056,450.047c4.408,3.286,0,7.982,0,7.982l-3.991-3.991-3.991,3.991s-4.408-4.7,0-7.982Z" fill="#f2f7fd" fill-rule="evenodd"/>
    <path id="Path_153" data-name="Path 153" d="M432.087,430.092v7.07a9.977,9.977,0,1,0,19.955,0v-7.07Z" fill="#ffe959" fill-rule="evenodd"/>
    <path id="Path_154" data-name="Path 154" d="M432.087,436.539a3.22,3.22,0,0,1-.726.082,3.264,3.264,0,1,1,0-6.529,3.218,3.218,0,0,1,.726.082v6.365Z" fill="#ffe959" fill-rule="evenodd"/>
    <path id="Path_155" data-name="Path 155" d="M452.042,436.539a3.226,3.226,0,0,0,.726.082,3.264,3.264,0,1,0,0-6.529,3.225,3.225,0,0,0-.726.082v6.365Z" fill="#ffe959" fill-rule="evenodd"/>
    <path id="Path_156" data-name="Path 156" d="M438.074,446.578v3.469a3.991,3.991,0,1,0,7.982,0v-3.469Z" fill="#ffe959" fill-rule="evenodd"/>
    <path id="Path_157" data-name="Path 157" d="M432.087,430.092s9.6,7.052,16.525,3.264c0,0-3.81.461-6.547-5.03,0,0,15.572,7.768,15.963-10.207H439.481a8.269,8.269,0,0,0-7.4,11.967l0,.006Z" fill="#354077" fill-rule="evenodd"/>
    <path id="Path_158" data-name="Path 158" d="M432.087,430.092s9.6,7.052,16.525,3.264c0,0-3.81.461-6.547-5.03,0,0,15.572,7.768,15.963-10.207H439.481a8.269,8.269,0,0,0-7.4,11.967l0,.006Zm23.946,31.927h-3.991m-9.977-7.981v0Zm0,0,3.991,3.991s4.408-4.7,0-7.982m-3.991,3.991-3.991,3.991s-4.408-4.7,0-7.982m19.954,5.4c-.219-.249-.447-.49-.684-.726a15.955,15.955,0,0,0-11.284-4.675h0m-21.809,7.982a15.943,15.943,0,0,0-2.137,7.977v0h39.909v0a15.943,15.943,0,0,0-2.137-7.977m-21.808-7.982h0a15.958,15.958,0,0,0-11.285,4.675c-.237.236-.465.477-.684.726m11.973-8.87v3.469a3.991,3.991,0,1,0,7.982,0v-3.469m5.986-10.039a3.226,3.226,0,0,0,.726.082,3.264,3.264,0,1,0,0-6.529,3.225,3.225,0,0,0-.726.082v6.365Zm-19.955,0a3.22,3.22,0,0,1-.726.082,3.264,3.264,0,1,1,0-6.529,3.218,3.218,0,0,1,.726.082v6.365Zm0-6.447v7.07a9.977,9.977,0,1,0,19.955,0v-7.07" fill="none" stroke="#0f0e0b" stroke-linecap="round" stroke-linejoin="round" stroke-width="1"/>
  </g>
</svg>
