<svg width="48.891px" height="48.891px" viewBox="-3.99 0 48.891 48.891" xmlns="http://www.w3.org/2000/svg">
  <g id="woman_in_uniform" data-name="woman in uniform" transform="translate(-325.828 -417.619)">
    <path id="Path_142" data-name="Path 142" d="M334.31,451.833V426.1a3.991,3.991,0,0,1,3.99-3.991h15.964a3.991,3.991,0,0,1,3.991,3.991v25.732Z" fill="#354077" fill-rule="evenodd"/>
    <path id="Path_143" data-name="Path 143" d="M350.277,450.047h-7.99A15.955,15.955,0,0,0,331,454.722c-.237.236-.465.477-.684.726l-1.854,2.581a15.943,15.943,0,0,0-2.137,7.977v0h39.909v0a15.943,15.943,0,0,0-2.137-7.977l-1.854-2.581c-.219-.249-.447-.49-.684-.726a15.958,15.958,0,0,0-11.285-4.675Z" fill="#56ae89" fill-rule="evenodd"/>
    <path id="Path_144" data-name="Path 144" d="M338.3,450.988l3.991,15.022h7.982l4.432-15.022s-11.152-2.328-16.4,0Z" fill="#f2f7fd" fill-rule="evenodd"/>
    <path id="Path_145" data-name="Path 145" d="M336.3,430.092v7.07a9.978,9.978,0,1,0,19.955,0v-7.07Z" fill="#ffe959" fill-rule="evenodd"/>
    <path id="Path_146" data-name="Path 146" d="M336.3,436.539a3.226,3.226,0,0,1-.726.082,3.264,3.264,0,1,1,0-6.529,3.224,3.224,0,0,1,.726.082v6.365Z" fill="#ffe959" fill-rule="evenodd"/>
    <path id="Path_147" data-name="Path 147" d="M356.26,436.539a3.219,3.219,0,0,0,.726.082,3.264,3.264,0,1,0,0-6.529,3.218,3.218,0,0,0-.726.082v6.365Z" fill="#ffe959" fill-rule="evenodd"/>
    <path id="Path_148" data-name="Path 148" d="M342.291,446.578v3.469a3.991,3.991,0,0,0,7.982,0v-3.469Z" fill="#ffe959" fill-rule="evenodd"/>
    <path id="Path_149" data-name="Path 149" d="M356.26,428.1a9.978,9.978,0,0,0-19.955,0v2s5.623,1.606,9.734,2.782a1.141,1.141,0,0,0,1.119-1.906l0,0a.511.511,0,0,1,.359-.872h8.745v-2Z" fill="#354077" fill-rule="evenodd"/>
    <path id="Path_150" data-name="Path 150" d="M356.26,428.1a9.978,9.978,0,0,0-19.955,0v2s5.623,1.606,9.734,2.782a1.141,1.141,0,0,0,1.119-1.906l0,0a.511.511,0,0,1,.359-.872h8.745v-2Zm3.991,33.923H356.26m-2-11.031-3.991,15.022,3.991-15.022Zm-15.964,0,3.991,15.022L338.3,450.988Zm23.946,4.46c-.219-.249-.447-.49-.684-.726a15.958,15.958,0,0,0-11.285-4.675h0m-21.808,7.982a15.943,15.943,0,0,0-2.137,7.977v0h39.909v0a15.943,15.943,0,0,0-2.137-7.977m-21.809-7.982h0A15.955,15.955,0,0,0,331,454.722c-.237.236-.465.477-.684.726m11.972-8.87v3.469a3.991,3.991,0,0,0,7.982,0v-3.469m5.987-10.039a3.219,3.219,0,0,0,.726.082,3.264,3.264,0,1,0,0-6.529,3.218,3.218,0,0,0-.726.082v6.365Zm-19.955,0a3.226,3.226,0,0,1-.726.082,3.264,3.264,0,1,1,0-6.529,3.224,3.224,0,0,1,.726.082v6.365Zm0-6.447v7.07a9.978,9.978,0,1,0,19.955,0v-7.07m1.995,0V426.1a3.991,3.991,0,0,0-3.991-3.991m3.991,29.723V437.347m-23.945-7.255V426.1a3.991,3.991,0,0,1,3.99-3.991m-3.99,29.723v-15" fill="none" stroke="#0f0e0b" stroke-linecap="round" stroke-linejoin="round" stroke-width="1"/>
  </g>
</svg>
